HIERARCHY
ROOT Hips
{
  OFFSET 0.367693 88.4352 14.4792
  CHANNELS 6 Xposition Yposition Zposition Zrotation Xrotation Yrotation
  JOINT Spine
  {
    OFFSET 0 10.1816 0.1315
    CHANNELS 6 Xposition Yposition Zposition Zrotation Xrotation Yrotation
    JOINT Spine1
    {
      OFFSET 0 10.0835 -1.0008
      CHANNELS 6 Xposition Yposition Zposition Zrotation Xrotation Yrotation
      JOINT Spine2
      {
        OFFSET 0 9.1 -1.3734
        CHANNELS 6 Xposition Yposition Zposition Zrotation Xrotation Yrotation
        JOINT Neck
        {
          OFFSET 0 16.6717 -2.5162
          CHANNELS 6 Xposition Yposition Zposition Zrotation Xrotation Yrotation
          JOINT Head
          {
            OFFSET 0 9.6179 1.685
            CHANNELS 6 Xposition Yposition Zposition Zrotation Xrotation Yrotation
            JOINT HeadTop_End
            {
              OFFSET 0 17.8152 2.585
              CHANNELS 6 Xposition Yposition Zposition Zrotation Xrotation Yrotation
              End Site
              {
                OFFSET 0 0 0
              }
            }
            JOINT LeftEye
            {
              OFFSET 3.0676 6.4095 9.2836
              CHANNELS 6 Xposition Yposition Zposition Zrotation Xrotation Yrotation
              End Site
              {
                OFFSET 0 0 0
              }
            }
            JOINT RightEye
            {
              OFFSET -3.0676 6.4095 9.2835
              CHANNELS 6 Xposition Yposition Zposition Zrotation Xrotation Yrotation
              End Site
              {
                OFFSET 0 0 0
              }
            }
          }
        }
        JOINT LeftShoulder
        {
          OFFSET 4.5704 10.946 -2.628
          CHANNELS 6 Xposition Yposition Zposition Zrotation Xrotation Yrotation
          JOINT LeftArm
          {
            OFFSET 10.5924 -0.5246 -2.2321
            CHANNELS 6 Xposition Yposition Zposition Zrotation Xrotation Yrotation
            JOINT LeftForeArm
            {
              OFFSET 27.8415 -0.0001 0
              CHANNELS 6 Xposition Yposition Zposition Zrotation Xrotation Yrotation
              JOINT LeftHand
              {
                OFFSET 28.3288 0 0
                CHANNELS 6 Xposition Yposition Zposition Zrotation Xrotation Yrotation
                JOINT LeftHandThumb1
                {
                  OFFSET 2.4661 -1.575 2.6824
                  CHANNELS 6 Xposition Yposition Zposition Zrotation Xrotation Yrotation
                  JOINT LeftHandThumb2
                  {
                    OFFSET 3.2298 -1.8647 1.8647
                    CHANNELS 6 Xposition Yposition Zposition Zrotation Xrotation Yrotation
                    JOINT LeftHandThumb3
                    {
                      OFFSET 2.6526 -1.5315 1.5315
                      CHANNELS 6 Xposition Yposition Zposition Zrotation Xrotation Yrotation
                      End Site
                      {
                        OFFSET 1.9546 -1.1285 1.1285
                      }
                    }
                  }
                }
                JOINT LeftHandIndex1
                {
                  OFFSET 9.1093 -0.5171 2.2601
                  CHANNELS 6 Xposition Yposition Zposition Zrotation Xrotation Yrotation
                  JOINT LeftHandIndex2
                  {
                    OFFSET 3.6764 0 0
                    CHANNELS 6 Xposition Yposition Zposition Zrotation Xrotation Yrotation
                    JOINT LeftHandIndex3
                    {
                      OFFSET 2.8831 0 0
                      CHANNELS 6 Xposition Yposition Zposition Zrotation Xrotation Yrotation
                      End Site
                      {
                        OFFSET 2.3927 0 0
                      }
                    }
                  }
                }
                JOINT LeftHandMiddle1
                {
                  OFFSET 9.5334 0 0
                  CHANNELS 6 Xposition Yposition Zposition Zrotation Xrotation Yrotation
                  JOINT LeftHandMiddle2
                  {
                    OFFSET 3.6982 0 0
                    CHANNELS 6 Xposition Yposition Zposition Zrotation Xrotation Yrotation
                    JOINT LeftHandMiddle3
                    {
                      OFFSET 2.9509 0 0
                      CHANNELS 6 Xposition Yposition Zposition Zrotation Xrotation Yrotation
                      End Site
                      {
                        OFFSET 2.8339 0 0
                      }
                    }
                  }
                }
                JOINT LeftHandRing1
                {
                  OFFSET 9.1045 -0.0439 -1.8651
                  CHANNELS 6 Xposition Yposition Zposition Zrotation Xrotation Yrotation
                  JOINT LeftHandRing2
                  {
                    OFFSET 3.154 0 0
                    CHANNELS 6 Xposition Yposition Zposition Zrotation Xrotation Yrotation
                    JOINT LeftHandRing3
                    {
                      OFFSET 2.9377 0 0
                      CHANNELS 6 Xposition Yposition Zposition Zrotation Xrotation Yrotation
                      End Site
                      {
                        OFFSET 2.6475 0 0
                      }
                    }
                  }
                }
                JOINT LeftHandPinky1
                {
                  OFFSET 8.0778 -0.4887 -3.8061
                  CHANNELS 6 Xposition Yposition Zposition Zrotation Xrotation Yrotation
                  JOINT LeftHandPinky2
                  {
                    OFFSET 3.6 0 0
                    CHANNELS 6 Xposition Yposition Zposition Zrotation Xrotation Yrotation
                    JOINT LeftHandPinky3
                    {
                      OFFSET 2.1142 0 0
                      CHANNELS 6 Xposition Yposition Zposition Zrotation Xrotation Yrotation
                      End Site
                      {
                        OFFSET 1.9757 0 0
                      }
                    }
                  }
                }
              }
            }
          }
        }
        JOINT RightShoulder
        {
          OFFSET -4.57 10.9462 -2.628
          CHANNELS 6 Xposition Yposition Zposition Zrotation Xrotation Yrotation
          JOINT RightArm
          {
            OFFSET -10.5928 -0.5248 -2.2321
            CHANNELS 6 Xposition Yposition Zposition Zrotation Xrotation Yrotation
            JOINT RightForeArm
            {
              OFFSET -27.8415 0 0
              CHANNELS 6 Xposition Yposition Zposition Zrotation Xrotation Yrotation
              JOINT RightHand
              {
                OFFSET -28.3288 0 0.0001
                CHANNELS 6 Xposition Yposition Zposition Zrotation Xrotation Yrotation
                JOINT RightHandPinky1
                {
                  OFFSET -8.0767 -0.4885 -3.806
                  CHANNELS 6 Xposition Yposition Zposition Zrotation Xrotation Yrotation
                  JOINT RightHandPinky2
                  {
                    OFFSET -3.6 0 0.0001
                    CHANNELS 6 Xposition Yposition Zposition Zrotation Xrotation Yrotation
                    JOINT RightHandPinky3
                    {
                      OFFSET -2.1142 0 0
                      CHANNELS 6 Xposition Yposition Zposition Zrotation Xrotation Yrotation
                      End Site
                      {
                        OFFSET -1.9757 0 0
                      }
                    }
                  }
                }
                JOINT RightHandRing1
                {
                  OFFSET -9.1036 -0.0439 -1.8651
                  CHANNELS 6 Xposition Yposition Zposition Zrotation Xrotation Yrotation
                  JOINT RightHandRing2
                  {
                    OFFSET -3.154 0 0
                    CHANNELS 6 Xposition Yposition Zposition Zrotation Xrotation Yrotation
                    JOINT RightHandRing3
                    {
                      OFFSET -2.9377 0 0
                      CHANNELS 6 Xposition Yposition Zposition Zrotation Xrotation Yrotation
                      End Site
                      {
                        OFFSET -2.6475 0 0
                      }
                    }
                  }
                }
                JOINT RightHandMiddle1
                {
                  OFFSET -9.5325 0 0
                  CHANNELS 6 Xposition Yposition Zposition Zrotation Xrotation Yrotation
                  JOINT RightHandMiddle2
                  {
                    OFFSET -3.6982 0 0
                    CHANNELS 6 Xposition Yposition Zposition Zrotation Xrotation Yrotation
                    JOINT RightHandMiddle3
                    {
                      OFFSET -2.9509 0 0
                      CHANNELS 6 Xposition Yposition Zposition Zrotation Xrotation Yrotation
                      End Site
                      {
                        OFFSET -2.8339 0 0.0001
                      }
                    }
                  }
                }
                JOINT RightHandIndex1
                {
                  OFFSET -9.1083 -0.5168 2.2601
                  CHANNELS 6 Xposition Yposition Zposition Zrotation Xrotation Yrotation
                  JOINT RightHandIndex2
                  {
                    OFFSET -3.6764 0 0
                    CHANNELS 6 Xposition Yposition Zposition Zrotation Xrotation Yrotation
                    JOINT RightHandIndex3
                    {
                      OFFSET -2.8831 0 0
                      CHANNELS 6 Xposition Yposition Zposition Zrotation Xrotation Yrotation
                      End Site
                      {
                        OFFSET -2.3927 0 0
                      }
                    }
                  }
                }
                JOINT RightHandThumb1
                {
                  OFFSET -2.4648 -1.5727 2.6826
                  CHANNELS 6 Xposition Yposition Zposition Zrotation Xrotation Yrotation
                  JOINT RightHandThumb2
                  {
                    OFFSET -3.2298 -1.8647 1.8647
                    CHANNELS 6 Xposition Yposition Zposition Zrotation Xrotation Yrotation
                    JOINT RightHandThumb3
                    {
                      OFFSET -2.6526 -1.5314 1.5314
                      CHANNELS 6 Xposition Yposition Zposition Zrotation Xrotation Yrotation
                      End Site
                      {
                        OFFSET -1.9546 -1.1285 1.1285
                      }
                    }
                  }
                }
              }
            }
          }
        }
      }
    }
  }
  JOINT LeftUpLeg
  {
    OFFSET 8.2078 -6.7517 -1.5996
    CHANNELS 6 Xposition Yposition Zposition Zrotation Xrotation Yrotation
    JOINT LeftLeg
    {
      OFFSET 0 -44.3705 0.2846
      CHANNELS 6 Xposition Yposition Zposition Zrotation Xrotation Yrotation
      JOINT LeftFoot
      {
        OFFSET 0 -44.4279 -2.9822
        CHANNELS 6 Xposition Yposition Zposition Zrotation Xrotation Yrotation
        JOINT LeftToeBase
        {
          OFFSET 0 -8.7287 10.7106
          CHANNELS 6 Xposition Yposition Zposition Zrotation Xrotation Yrotation
          End Site
          {
            OFFSET 0 -0.0007 9.2781
          }
        }
      }
    }
  }
  JOINT RightUpLeg
  {
    OFFSET -8.2078 -6.7517 -1.5996
    CHANNELS 6 Xposition Yposition Zposition Zrotation Xrotation Yrotation
    JOINT RightLeg
    {
      OFFSET 0 -44.3705 0.2862
      CHANNELS 6 Xposition Yposition Zposition Zrotation Xrotation Yrotation
      JOINT RightFoot
      {
        OFFSET 0 -44.4277 -2.9838
        CHANNELS 6 Xposition Yposition Zposition Zrotation Xrotation Yrotation
        JOINT RightToeBase
        {
          OFFSET 0 -8.7287 10.7106
          CHANNELS 6 Xposition Yposition Zposition Zrotation Xrotation Yrotation
          End Site
          {
            OFFSET 0 -0.0007 9.2781
          }
        }
      }
    }
  }
}
MOTION
Frames:	4
Frame Time:	0.0333333
0.440047 88.5718 14.3408 -10.1213 18.0592 33.7666 8.88178e-016 10.1816 0.1315 -0.172335 16.6653 3.48689 -1.77636e-015 10.0835 -1.0008 -9.57689 15.8583 14.2757 0 9.1 -1.3734 -5.28766 5.56516 14.2666 3.55271e-015 16.6717 -2.5162 -0.788983 0.395529 -3.69126 0 9.6179 1.685 3.49537 -8.0382 6.37894 -7.10543e-015 17.8152 2.585 5.79325e-031 5.96354e-015 -5.56597e-015 3.0676 6.4095 9.2836 5.79325e-031 5.96354e-015 -5.56597e-015 -3.0676 6.4095 9.2835 5.79325e-031 5.96354e-015 -5.56597e-015 4.5704 10.946 -2.628 -2.17923 -0.428465 8.11556 10.5924 -0.5246 -2.2321 -59.6313 -12.4838 19.1347 27.8415 -0.0001 0 -12.5451 32.981 -15.8319 28.3288 0 0 10.2041 -12.019 -1.84488 2.4661 -1.575 2.6824 -5.27163 11.5275 19.1692 3.2298 -1.8647 1.8647 4.41848 -3.41959 9.33162 2.6526 -1.5315 1.5315 13.8274 9.42214 -13.7686 9.1093 -0.5171 2.2601 -22.4984 12.4973 4.61461 3.6764 0 0 -52.6236 1.37093 1.14975 2.8831 1.06581e-014 1.42109e-014 -61.3675 1.2553 -2.33936 9.5334 -1.42109e-014 0 -19.7066 15.1917 3.8101 3.6982 3.55271e-015 0 -46.0247 1.18077 -2.04153 2.9509 -1.06581e-014 -2.84217e-014 -47.6343 1.36714 -2.09518 9.1045 -0.0439 -1.8651 -24.8406 3.58176 6.18318 3.154 0 1.42109e-014 -43.7901 -0.148597 -2.28593 2.9377 0 0 -42.8947 0.0274012 -2.18243 8.0778 -0.4887 -3.8061 -23.1371 5.29968 8.28969 3.6 0 0 -44.5423 -0.276388 -2.4248 2.1142 1.77636e-015 -1.42109e-014 -42.6643 -0.821027 -2.28655 -4.57 10.9462 -2.628 6.13258 12.0166 23.0524 -10.5928 -0.5248 -2.2321 9.49233 -0.94191 57.158 -27.8415 0 3.55271e-015 -6.00728 -13.5055 60.7946 -28.3288 0 0.0001 13.0371 -63.7602 -46.1265 -8.0767 -0.4885 -3.806 47.8408 -12.123 -0.591791 -3.6 0 0.0001 45.5832 0.742361 1.47468 -2.1142 0 -7.10543e-015 24.9836 -0.118785 0.954172 -9.1036 -0.0439 -1.8651 58.5291 -1.72557 5.18797 -3.154 -1.42109e-014 1.42109e-014 47.9886 0.749482 1.68941 -2.9377 0 7.10543e-015 53.637 1.00953 1.76998 -9.5325 1.42109e-014 7.10543e-015 44.9822 1.25246 1.44164 -3.6982 -1.42109e-014 0 68.3323 2.5655 2.29258 -2.9509 7.10543e-015 7.10543e-015 41.0833 0.493036 1.99775 -9.1083 -0.5168 2.2601 37.0054 9.08896 2.67702 -3.6764 7.10543e-015 1.42109e-014 68.9197 3.96316 0.421427 -2.8831 0 0 62.1834 2.92384 0.993777 -2.4648 -1.5727 2.6826 -36.858 38.4689 46.239 -3.2298 -1.8647 1.8647 7.09911 -2.22568 -14.0125 -2.6526 -1.5314 1.5314 8.34674 17.0019 -32.0101 8.2078 -6.7517 -1.5996 -41.9939 -56.8936 -51.1648 -1.22125e-015 -44.3705 0.2846 12.0938 41.4466 -36.2447 3.55271e-015 -44.4279 -2.9822 -6.78542 1.71911 9.88375 -3.55271e-015 -8.7287 10.7106 0.847187 -0.575788 -4.20404 -8.2078 -6.7517 -1.5996 -8.3101 0.566196 -54.6105 7.10543e-015 -44.3705 0.2862 -6.10876 40.2611 0.791399 -7.10543e-015 -44.4277 -2.9838 14.5313 -12.6711 3.37683 -7.10543e-015 -8.7287 10.7106 19.5737 -17.1714 -2.74313 
0.664421 88.8679 13.8497 -9.79675 16.6166 31.5598 0 10.1816 0.1315 -0.156741 16.4547 3.33543 8.88178e-016 10.0835 -1.0008 -9.49001 15.4843 13.8844 3.55271e-015 9.1 -1.3734 -5.27394 5.16423 13.9171 0 16.6717 -2.5162 -1.58464 0.25634 -3.35708 -3.55271e-015 9.6179 1.685 3.92785 -8.73718 4.57513 0 17.8152 2.585 3.18055e-015 2.38542e-015 -3.18055e-015 3.0676 6.4095 9.2836 3.18055e-015 2.38542e-015 -3.18055e-015 -3.0676 6.4095 9.2835 3.18055e-015 2.38542e-015 -3.18055e-015 4.5704 10.946 -2.628 -2.17453 -0.338099 7.21338 10.5924 -0.5246 -2.2321 -59.9821 -12.5728 19.4533 27.8415 -0.0001 0 -14.6148 36.6772 -13.6279 28.3288 0 -1.42109e-014 8.86622 -7.05654 -2.7188 2.4661 -1.575 2.6824 -5.62566 11.4802 19.834 3.2298 -1.8647 1.8647 4.46943 -3.38786 9.34637 2.6526 -1.5315 1.5315 13.8709 9.49725 -13.7874 9.1093 -0.5171 2.2601 -22.8295 12.6078 4.77745 3.6764 -3.55271e-015 1.42109e-014 -53.2701 1.39387 1.13789 2.8831 -3.55271e-015 1.42109e-014 -62.2427 1.2909 -2.35595 9.5334 0 -1.42109e-014 -19.7736 15.3201 3.81625 3.6982 0 0 -46.4859 1.19762 -2.05766 2.9509 0 0 -48.1129 1.38327 -2.10928 9.1045 -0.0439 -1.8651 -25.089 3.70981 6.12248 3.154 0 -1.42109e-014 -44.127 -0.135159 -2.30015 2.9377 0 -1.42109e-014 -43.2283 0.0396132 -2.19569 8.0778 -0.4887 -3.8061 -23.1476 5.41152 8.24748 3.6 0 0 -44.6289 -0.25837 -2.42803 2.1142 -3.55271e-015 1.42109e-014 -42.7902 -0.815481 -2.29257 -4.57 10.9462 -2.628 4.58883 12.5651 23.0634 -10.5928 -0.5248 -2.2321 11.9558 -2.45869 61.6624 -27.8415 0 7.10543e-015 -7.40811 -4.04398 56.2778 -28.3288 0 0.0001 19.638 -56.8937 -33.8625 -8.0767 -0.4885 -3.806 47.8408 -12.123 -0.591791 -3.6 0 0.0001 45.5832 0.742361 1.47468 -2.1142 0 7.10543e-015 24.9836 -0.118785 0.954172 -9.1036 -0.0439 -1.8651 58.5291 -1.72557 5.18797 -3.154 0 -7.10543e-015 47.9886 0.749482 1.68941 -2.9377 0 0 53.637 1.00953 1.76998 -9.5325 3.55271e-015 -7.10543e-015 44.9822 1.25246 1.44164 -3.6982 -1.42109e-014 -1.42109e-014 68.3323 2.5655 2.29258 -2.9509 0 1.42109e-014 41.0833 0.493036 1.99775 -9.1083 -0.5168 2.2601 37.0054 9.08896 2.67702 -3.6764 7.10543e-015 -1.42109e-014 68.9197 3.96316 0.421427 -2.8831 0 0 62.1834 2.92384 0.993777 -2.4648 -1.5727 2.6826 -36.858 38.4689 46.239 -3.2298 -1.8647 1.8647 7.09911 -2.22568 -14.0125 -2.6526 -1.5314 1.5314 8.34674 17.0019 -32.0101 8.2078 -6.7517 -1.5996 -37.9395 -56.9248 -46.7614 3.33067e-016 -44.3705 0.2846 12.0739 41.2726 -36.1193 0 -44.4279 -2.9822 -6.62124 1.9731 9.96037 0 -8.7287 10.7106 0.847628 -0.576157 -4.20403 -8.2078 -6.7517 -1.5996 -8.78264 1.42571 -54.0534 0 -44.3705 0.2862 -6.50434 40.7171 2.09952 0 -44.4277 -2.9838 14.0369 -11.5621 3.93203 0 -8.7287 10.7106 19.5643 -17.8538 -2.31847 
1.02945 89.243 13.1492 -9.28186 15.0291 28.731 8.88178e-016 10.1816 0.1315 -0.040132 16.1013 3.14223 8.88178e-016 10.0835 -1.0008 -9.16617 14.8481 13.3801 1.77636e-015 9.1 -1.3734 -5.04507 4.49442 13.4762 7.10543e-015 16.6717 -2.5162 -1.18349 2.33098 -2.79423 -3.55271e-015 9.6179 1.685 2.93419 -11.5652 3.32371 7.10543e-015 17.8152 2.585 -6.36111e-015 -4.77083e-015 6.36111e-015 3.0676 6.4095 9.2836 -6.36111e-015 -4.77083e-015 6.36111e-015 -3.0676 6.4095 9.2835 -6.36111e-015 -4.77083e-015 6.36111e-015 4.5704 10.946 -2.628 -3.01841 -0.311035 6.75353 10.5924 -0.5246 -2.2321 -59.6274 -12.5969 19.4611 27.8415 -0.0001 0 -15.5329 40.0117 -12.7086 28.3288 1.77636e-015 -1.42109e-014 3.57657 -1.68766 -3.48306 2.4661 -1.575 2.6824 -5.86306 11.4924 20.3569 3.2298 -1.8647 1.8647 4.50347 -3.36654 9.35624 2.6526 -1.5315 1.5315 13.899 9.5483 -13.8002 9.1093 -0.5171 2.2601 -23.017 12.6138 4.90729 3.6764 0 0 -53.7172 1.41 1.1264 2.8831 0 0 -62.8908 1.31744 -2.36795 9.5334 0 0 -19.8033 15.297 3.79312 3.6982 -3.55271e-015 0 -46.8436 1.20941 -2.06638 2.9509 0 -1.42109e-014 -48.3902 1.39238 -2.11468 9.1045 -0.0439 -1.8651 -25.3098 3.88684 6.01458 3.154 3.55271e-015 0 -44.3506 -0.12619 -2.30956 2.9377 3.55271e-015 0 -43.4171 0.0465003 -2.20321 8.0778 -0.4887 -3.8061 -23.1475 5.48746 8.1631 3.6 0 1.42109e-014 -44.6871 -0.253467 -2.43313 2.1142 7.10543e-015 1.42109e-014 -42.8747 -0.811602 -2.29673 -4.57 10.9462 -2.628 3.0981 13.1628 22.4974 -10.5928 -0.5248 -2.2321 13.9106 -2.94155 67.273 -27.8415 0 0 -8.2113 6.17692 50.8918 -28.3288 0 0.0001 20.7741 -49.162 -23.9206 -8.0767 -0.4885 -3.806 47.8408 -12.123 -0.591791 -3.6 -7.10543e-015 0.0001 45.5832 0.742361 1.47468 -2.1142 0 0 24.9836 -0.118785 0.954172 -9.1036 -0.0439 -1.8651 58.5291 -1.72557 5.18797 -3.154 1.42109e-014 0 47.9886 0.749482 1.68941 -2.9377 0 -1.42109e-014 53.637 1.00953 1.76998 -9.5325 7.10543e-015 1.42109e-014 44.9822 1.25246 1.44164 -3.6982 0 0 68.3323 2.5655 2.29258 -2.9509 0 0 41.0833 0.493036 1.99775 -9.1083 -0.5168 2.2601 37.0054 9.08896 2.67702 -3.6764 3.55271e-015 0 68.9197 3.96316 0.421427 -2.8831 7.10543e-015 0 62.1834 2.92384 0.993777 -2.4648 -1.5727 2.6826 -36.858 38.4689 46.239 -3.2298 -1.8647 1.8647 7.09911 -2.22568 -14.0125 -2.6526 -1.5314 1.5314 8.34674 17.0019 -32.0101 8.2078 -6.7517 -1.5996 -33.1899 -56.6995 -41.1901 4.44089e-016 -44.3705 0.2846 12.1319 40.7511 -35.998 0 -44.4279 -2.9822 -6.46243 2.45682 10.063 0 -8.7287 10.7106 0.848243 -0.576482 -4.20401 -8.2078 -6.7517 -1.5996 -9.58565 2.41037 -52.7305 0 -44.3705 0.2862 -6.28204 41.108 2.64345 0 -44.4277 -2.9838 13.1824 -10.9573 4.16977 0 -8.7287 10.7106 19.8161 -17.6351 -1.69997 
1.39331 89.6629 12.3551 -8.49588 13.3773 25.2553 -8.88178e-016 10.1816 0.1315 0.0585326 15.7492 2.91612 0 10.0835 -1.0008 -8.86314 14.2206 12.8046 0 9.1 -1.3734 -4.84944 3.829 12.9637 3.55271e-015 16.6717 -2.5162 -1.55656 4.79468 -1.37074 -3.55271e-015 9.6179 1.685 2.99899 -15.1164 2.25076 0 17.8152 2.585 -8.82781e-031 -7.95139e-015 -6.36111e-015 3.0676 6.4095 9.2836 -8.82781e-031 -7.95139e-015 -6.36111e-015 -3.0676 6.4095 9.2835 -8.82781e-031 -7.95139e-015 -6.36111e-015 4.5704 10.946 -2.628 -3.85161 -0.295521 6.45483 10.5924 -0.5246 -2.2321 -59.3672 -12.5342 18.9485 27.8415 -0.0001 1.42109e-014 -14.4914 42.4249 -14.3862 28.3288 6.21725e-015 1.42109e-014 -4.5774 0.0611696 -0.996004 2.4661 -1.575 2.6824 -5.9949 11.5627 20.7375 3.2298 -1.8647 1.8647 4.52238 -3.3571 9.35909 2.6526 -1.5315 1.5315 13.9144 9.57609 -13.8073 9.1093 -0.5171 2.2601 -23.0688 12.5259 5.00205 3.6764 0 0 -53.9674 1.41781 1.11794 2.8831 0 2.84217e-014 -63.313 1.33481 -2.37584 9.5334 3.55271e-015 0 -19.8002 15.1414 3.74627 3.6982 0 -1.42109e-014 -47.0928 1.21797 -2.07207 2.9509 -7.10543e-015 -1.42109e-014 -48.4801 1.39514 -2.11666 9.1045 -0.0439 -1.8651 -25.4986 4.10069 5.87013 3.154 -7.10543e-015 0 -44.464 -0.121663 -2.31434 2.9377 -7.10543e-015 -1.42109e-014 -43.4724 0.0482131 -2.20538 8.0778 -0.4887 -3.8061 -23.1348 5.53076 8.04371 3.6 -7.10543e-015 -1.42109e-014 -44.719 -0.252413 -2.43471 2.1142 -1.06581e-014 1.42109e-014 -42.9207 -0.809248 -2.29911 -4.57 10.9462 -2.628 1.60369 13.8073 22.4367 -10.5928 -0.5248 -2.2321 15.9863 -2.40245 72.2452 -27.8415 0 0 -8.47609 14.8568 46.3043 -28.3288 1.42109e-014 0.0001 16.6668 -40.5007 -17.6611 -8.0767 -0.4885 -3.806 47.8408 -12.123 -0.591791 -3.6 -7.10543e-015 0.0001 45.5832 0.742361 1.47468 -2.1142 -7.10543e-015 7.10543e-015 24.9836 -0.118785 0.954172 -9.1036 -0.0439 -1.8651 58.5291 -1.72557 5.18797 -3.154 -7.10543e-015 0 47.9886 0.749482 1.68941 -2.9377 0 0 53.637 1.00953 1.76998 -9.5325 0 -1.42109e-014 44.9822 1.25246 1.44164 -3.6982 -7.10543e-015 0 68.3323 2.5655 2.29258 -2.9509 0 -1.42109e-014 41.0833 0.493036 1.99775 -9.1083 -0.5168 2.2601 37.0054 9.08896 2.67702 -3.6764 -5.32907e-015 -1.42109e-014 68.9197 3.96316 0.421427 -2.8831 0 0 62.1834 2.92384 0.993777 -2.4648 -1.5727 2.6826 -36.858 38.4689 46.239 -3.2298 -1.8647 1.8647 7.09911 -2.22568 -14.0125 -2.6526 -1.5314 1.5314 8.34674 17.0019 -32.0101 8.2078 -6.7517 -1.5996 -27.957 -56.1679 -34.7238 0 -44.3705 0.2846 12.2303 40.0158 -35.7916 -3.55271e-015 -44.4279 -2.9822 -6.37591 2.99194 10.2317 0 -8.7287 10.7106 0.848671 -0.576827 -4.20402 -8.2078 -6.7517 -1.5996 -10.6591 3.34416 -50.1276 0 -44.3705 0.2862 -5.5424 41.4491 2.76278 7.10543e-015 -44.4277 -2.9838 12.2863 -10.9516 4.01062 -7.10543e-015 -8.7287 10.7106 19.3679 -17.0811 -1.29834 
